<mxfile host="app.diagrams.net" modified="2023-12-14T14:39:44.876Z" agent="Mozilla/5.0 (Windows NT 10.0; Win64; x64) AppleWebKit/537.36 (KHTML, like Gecko) Chrome/120.0.0.0 Safari/537.36" etag="3p8S2A3Fx1hq_J0atQOq" version="22.1.8" type="device">
  <diagram name="Page-1" id="PAeA1l-zlNY7oYlnAmup">
    <mxGraphModel dx="794" dy="412" grid="1" gridSize="10" guides="1" tooltips="1" connect="1" arrows="1" fold="1" page="1" pageScale="1" pageWidth="827" pageHeight="1169" math="0" shadow="0">
      <root>
        <mxCell id="0" />
        <mxCell id="1" parent="0" />
        <mxCell id="kqOn3HD5xI1B7vRRxgX3-4" style="edgeStyle=orthogonalEdgeStyle;rounded=0;orthogonalLoop=1;jettySize=auto;html=1;entryX=0;entryY=0.5;entryDx=0;entryDy=0;" edge="1" parent="1" source="kqOn3HD5xI1B7vRRxgX3-1" target="kqOn3HD5xI1B7vRRxgX3-3">
          <mxGeometry relative="1" as="geometry" />
        </mxCell>
        <mxCell id="kqOn3HD5xI1B7vRRxgX3-1" value="develop the code&amp;nbsp;&lt;br&gt;maven app/springboot java app" style="rounded=0;whiteSpace=wrap;html=1;" vertex="1" parent="1">
          <mxGeometry x="80" y="40" width="160" height="80" as="geometry" />
        </mxCell>
        <mxCell id="kqOn3HD5xI1B7vRRxgX3-2" value="visual studio local" style="text;html=1;align=center;verticalAlign=middle;resizable=0;points=[];autosize=1;strokeColor=none;fillColor=none;" vertex="1" parent="1">
          <mxGeometry x="100" y="120" width="120" height="30" as="geometry" />
        </mxCell>
        <mxCell id="kqOn3HD5xI1B7vRRxgX3-3" value="store the repo i.e src, laac,pipeline,dockerfile etc." style="rounded=0;whiteSpace=wrap;html=1;" vertex="1" parent="1">
          <mxGeometry x="370" y="40" width="160" height="80" as="geometry" />
        </mxCell>
        <mxCell id="kqOn3HD5xI1B7vRRxgX3-5" value="push changes to repo" style="text;html=1;align=center;verticalAlign=middle;resizable=0;points=[];autosize=1;strokeColor=none;fillColor=none;" vertex="1" parent="1">
          <mxGeometry x="240" y="80" width="140" height="30" as="geometry" />
        </mxCell>
        <mxCell id="kqOn3HD5xI1B7vRRxgX3-9" style="edgeStyle=orthogonalEdgeStyle;rounded=0;orthogonalLoop=1;jettySize=auto;html=1;entryX=0;entryY=0.5;entryDx=0;entryDy=0;" edge="1" parent="1" source="kqOn3HD5xI1B7vRRxgX3-6" target="kqOn3HD5xI1B7vRRxgX3-7">
          <mxGeometry relative="1" as="geometry">
            <Array as="points">
              <mxPoint x="440" y="170" />
              <mxPoint x="60" y="170" />
              <mxPoint x="60" y="240" />
            </Array>
          </mxGeometry>
        </mxCell>
        <mxCell id="kqOn3HD5xI1B7vRRxgX3-6" value="gitlab repo" style="text;html=1;align=center;verticalAlign=middle;resizable=0;points=[];autosize=1;strokeColor=none;fillColor=none;" vertex="1" parent="1">
          <mxGeometry x="400" y="120" width="80" height="30" as="geometry" />
        </mxCell>
        <mxCell id="kqOn3HD5xI1B7vRRxgX3-12" style="edgeStyle=orthogonalEdgeStyle;rounded=0;orthogonalLoop=1;jettySize=auto;html=1;entryX=0;entryY=0.5;entryDx=0;entryDy=0;" edge="1" parent="1" source="kqOn3HD5xI1B7vRRxgX3-7" target="kqOn3HD5xI1B7vRRxgX3-11">
          <mxGeometry relative="1" as="geometry" />
        </mxCell>
        <mxCell id="kqOn3HD5xI1B7vRRxgX3-7" value="triggers the pipelines based rule , variables,&lt;br&gt;ci pipeline, cd pipelines -dev,si,prod. infra pipeline." style="rounded=0;whiteSpace=wrap;html=1;" vertex="1" parent="1">
          <mxGeometry x="80" y="200" width="160" height="80" as="geometry" />
        </mxCell>
        <mxCell id="kqOn3HD5xI1B7vRRxgX3-8" value="gitlab ci" style="text;html=1;align=center;verticalAlign=middle;resizable=0;points=[];autosize=1;strokeColor=none;fillColor=none;" vertex="1" parent="1">
          <mxGeometry x="120" y="278" width="60" height="30" as="geometry" />
        </mxCell>
        <mxCell id="kqOn3HD5xI1B7vRRxgX3-23" style="edgeStyle=orthogonalEdgeStyle;rounded=0;orthogonalLoop=1;jettySize=auto;html=1;entryX=0.5;entryY=0;entryDx=0;entryDy=0;" edge="1" parent="1" source="kqOn3HD5xI1B7vRRxgX3-11" target="kqOn3HD5xI1B7vRRxgX3-19">
          <mxGeometry relative="1" as="geometry" />
        </mxCell>
        <mxCell id="kqOn3HD5xI1B7vRRxgX3-11" value="1. repo pull&lt;br&gt;2. app build maven install.&lt;br&gt;3. docker image build and tag&lt;br&gt;4. docker push to repo" style="rounded=0;whiteSpace=wrap;html=1;" vertex="1" parent="1">
          <mxGeometry x="370" y="230" width="290" height="70" as="geometry" />
        </mxCell>
        <mxCell id="kqOn3HD5xI1B7vRRxgX3-13" value="ci pipeline and&lt;br&gt;&amp;nbsp;cd pipeline" style="text;html=1;align=center;verticalAlign=middle;resizable=0;points=[];autosize=1;strokeColor=none;fillColor=none;" vertex="1" parent="1">
          <mxGeometry x="260" y="265" width="100" height="40" as="geometry" />
        </mxCell>
        <mxCell id="kqOn3HD5xI1B7vRRxgX3-14" value="gitlab runner" style="text;html=1;align=center;verticalAlign=middle;resizable=0;points=[];autosize=1;strokeColor=none;fillColor=none;" vertex="1" parent="1">
          <mxGeometry x="420" y="300" width="90" height="30" as="geometry" />
        </mxCell>
        <mxCell id="kqOn3HD5xI1B7vRRxgX3-15" value="quay repo&lt;br&gt;image versions" style="ellipse;whiteSpace=wrap;html=1;" vertex="1" parent="1">
          <mxGeometry x="640" y="40" width="80" height="80" as="geometry" />
        </mxCell>
        <mxCell id="kqOn3HD5xI1B7vRRxgX3-17" value="docker pushs image to quay" style="text;html=1;align=center;verticalAlign=middle;resizable=0;points=[];autosize=1;strokeColor=none;fillColor=none;" vertex="1" parent="1">
          <mxGeometry x="480" y="170" width="170" height="30" as="geometry" />
        </mxCell>
        <mxCell id="kqOn3HD5xI1B7vRRxgX3-18" style="edgeStyle=orthogonalEdgeStyle;rounded=0;orthogonalLoop=1;jettySize=auto;html=1;exitX=0.5;exitY=1;exitDx=0;exitDy=0;" edge="1" parent="1" source="kqOn3HD5xI1B7vRRxgX3-11" target="kqOn3HD5xI1B7vRRxgX3-11">
          <mxGeometry relative="1" as="geometry" />
        </mxCell>
        <mxCell id="kqOn3HD5xI1B7vRRxgX3-27" style="edgeStyle=orthogonalEdgeStyle;rounded=0;orthogonalLoop=1;jettySize=auto;html=1;entryX=0.5;entryY=0;entryDx=0;entryDy=0;" edge="1" parent="1" source="kqOn3HD5xI1B7vRRxgX3-19" target="kqOn3HD5xI1B7vRRxgX3-26">
          <mxGeometry relative="1" as="geometry" />
        </mxCell>
        <mxCell id="kqOn3HD5xI1B7vRRxgX3-19" value="1. helm validate&lt;br&gt;2. helm deploy packge to ROSA.&lt;br&gt;" style="whiteSpace=wrap;html=1;" vertex="1" parent="1">
          <mxGeometry x="370" y="360" width="290" height="80" as="geometry" />
        </mxCell>
        <mxCell id="kqOn3HD5xI1B7vRRxgX3-24" value="gitlab runner" style="text;html=1;align=center;verticalAlign=middle;resizable=0;points=[];autosize=1;strokeColor=none;fillColor=none;" vertex="1" parent="1">
          <mxGeometry x="420" y="440" width="90" height="30" as="geometry" />
        </mxCell>
        <mxCell id="kqOn3HD5xI1B7vRRxgX3-25" style="edgeStyle=orthogonalEdgeStyle;rounded=0;orthogonalLoop=1;jettySize=auto;html=1;entryX=0.5;entryY=1;entryDx=0;entryDy=0;" edge="1" parent="1" source="kqOn3HD5xI1B7vRRxgX3-11" target="kqOn3HD5xI1B7vRRxgX3-15">
          <mxGeometry relative="1" as="geometry" />
        </mxCell>
        <mxCell id="kqOn3HD5xI1B7vRRxgX3-28" style="edgeStyle=orthogonalEdgeStyle;rounded=0;orthogonalLoop=1;jettySize=auto;html=1;entryX=1;entryY=0.5;entryDx=0;entryDy=0;" edge="1" parent="1" source="kqOn3HD5xI1B7vRRxgX3-26" target="kqOn3HD5xI1B7vRRxgX3-15">
          <mxGeometry relative="1" as="geometry" />
        </mxCell>
        <mxCell id="kqOn3HD5xI1B7vRRxgX3-26" value="ROSA cluster" style="ellipse;whiteSpace=wrap;html=1;" vertex="1" parent="1">
          <mxGeometry x="477.5" y="505" width="75" height="80" as="geometry" />
        </mxCell>
        <mxCell id="kqOn3HD5xI1B7vRRxgX3-29" value="pull the latest image" style="text;html=1;align=center;verticalAlign=middle;resizable=0;points=[];autosize=1;strokeColor=none;fillColor=none;" vertex="1" parent="1">
          <mxGeometry x="615" y="518" width="130" height="30" as="geometry" />
        </mxCell>
        <mxCell id="kqOn3HD5xI1B7vRRxgX3-36" style="edgeStyle=orthogonalEdgeStyle;rounded=0;orthogonalLoop=1;jettySize=auto;html=1;entryX=0.5;entryY=0;entryDx=0;entryDy=0;" edge="1" parent="1" source="kqOn3HD5xI1B7vRRxgX3-30" target="kqOn3HD5xI1B7vRRxgX3-32">
          <mxGeometry relative="1" as="geometry" />
        </mxCell>
        <mxCell id="kqOn3HD5xI1B7vRRxgX3-30" value="deploy the iaac aws cft to AWS account dev,si,prod&lt;br&gt;1. aws lint,nag,validate.&lt;br&gt;2. aws deploy" style="whiteSpace=wrap;html=1;" vertex="1" parent="1">
          <mxGeometry x="50" y="380" width="200" height="80" as="geometry" />
        </mxCell>
        <mxCell id="kqOn3HD5xI1B7vRRxgX3-31" value="gitlab runner" style="text;html=1;align=center;verticalAlign=middle;resizable=0;points=[];autosize=1;strokeColor=none;fillColor=none;" vertex="1" parent="1">
          <mxGeometry x="90" y="460" width="90" height="30" as="geometry" />
        </mxCell>
        <mxCell id="kqOn3HD5xI1B7vRRxgX3-32" value="AWS Cloud" style="points=[[0,0],[0.25,0],[0.5,0],[0.75,0],[1,0],[1,0.25],[1,0.5],[1,0.75],[1,1],[0.75,1],[0.5,1],[0.25,1],[0,1],[0,0.75],[0,0.5],[0,0.25]];outlineConnect=0;gradientColor=none;html=1;whiteSpace=wrap;fontSize=12;fontStyle=0;container=1;pointerEvents=0;collapsible=0;recursiveResize=0;shape=mxgraph.aws4.group;grIcon=mxgraph.aws4.group_aws_cloud_alt;strokeColor=#232F3E;fillColor=none;verticalAlign=top;align=left;spacingLeft=30;fontColor=#232F3E;dashed=0;" vertex="1" parent="1">
          <mxGeometry x="87.5" y="518" width="232.5" height="92" as="geometry" />
        </mxCell>
        <mxCell id="kqOn3HD5xI1B7vRRxgX3-37" value="aws resources like cft, &lt;br&gt;apigateway, route53, roles, kms etc" style="text;html=1;align=center;verticalAlign=middle;resizable=0;points=[];autosize=1;strokeColor=none;fillColor=none;" vertex="1" parent="kqOn3HD5xI1B7vRRxgX3-32">
          <mxGeometry x="11.25" y="30" width="210" height="40" as="geometry" />
        </mxCell>
        <mxCell id="kqOn3HD5xI1B7vRRxgX3-33" style="edgeStyle=orthogonalEdgeStyle;rounded=0;orthogonalLoop=1;jettySize=auto;html=1;entryX=0.553;entryY=-0.025;entryDx=0;entryDy=0;entryPerimeter=0;" edge="1" parent="1" source="kqOn3HD5xI1B7vRRxgX3-7" target="kqOn3HD5xI1B7vRRxgX3-30">
          <mxGeometry relative="1" as="geometry" />
        </mxCell>
        <mxCell id="kqOn3HD5xI1B7vRRxgX3-34" value="infra pipeline" style="text;html=1;align=center;verticalAlign=middle;resizable=0;points=[];autosize=1;strokeColor=none;fillColor=none;" vertex="1" parent="1">
          <mxGeometry x="150" y="330" width="90" height="30" as="geometry" />
        </mxCell>
        <mxCell id="kqOn3HD5xI1B7vRRxgX3-39" value="aws dev, si, prod account" style="text;html=1;align=center;verticalAlign=middle;resizable=0;points=[];autosize=1;strokeColor=none;fillColor=none;" vertex="1" parent="1">
          <mxGeometry x="120" y="610" width="160" height="30" as="geometry" />
        </mxCell>
      </root>
    </mxGraphModel>
  </diagram>
</mxfile>
